<svg xmlns="http://www.w3.org/2000/svg">
  <symbol id="file" viewBox="0 0 384 512"><path d="M336 464V160H224V48H48V464H336zM48 0H256L384 128V464v48H336 48 0V464 48 0H48z"/></symbol>
  <symbol id="folder" viewBox="0 0 512 512"><path d="M272 96L224 32H48 0V80 432v48H48 464h48V432 144 96H464 272zm192 48V432H48V80H200l33.6 44.8L248 144h24H464z"/></symbol>
  <symbol id="files" viewBox="0 0 448 512"><path d="M144 368H400V128H320V48H144V368zM352 0l96 96V368v48H400 144 96V368 48 0h48H352zM48 96v24V464H328h24v48H328 24 0V488 120 96H48z"/></symbol>
  <symbol id="chevron-right" viewBox="0 0 320 512"><path d="M317.3 256l-22.6 22.6-192 192L80 493.3 34.7 448l22.6-22.6L226.7 256 57.4 86.6 34.7 64 80 18.7l22.6 22.6 192 192L317.3 256z"/></symbol>
  <symbol id="drive" viewBox="0 0 512 512"><path d="M48 80V256H464V80H48zm0 224V432H464V304H48zM0 256V80 32H48 464h48V80 256v48V432v48H464 48 0V432 304 256zM280 368a24 24 0 1 1 48 0 24 24 0 1 1 -48 0zm120-24a24 24 0 1 1 0 48 24 24 0 1 1 0-48z"/></symbol>
</svg>